<svg width="47" height="51" viewBox="0 0 47 51" fill="none" xmlns="http://www.w3.org/2000/svg">
<mask id="path-1-inside-1_115_6" fill="white">
<path d="M0 12C0 8.13401 3.13401 5 7 5H40C43.866 5 47 8.13401 47 12V44C47 47.866 43.866 51 40 51H7C3.13401 51 0 47.866 0 44V12Z"/>
</mask>
<path d="M-6 7C-6 -0.179702 -0.179702 -6 7 -6H40C47.1797 -6 53 -0.179702 53 7L41 16C41 16 40.5523 16 40 16H7C6.44772 16 6 16 6 16L-6 7ZM53 44C53 51.1797 47.1797 57 40 57H7C-0.179702 57 -6 51.1797 -6 44H6C6 44.5523 6.44772 45 7 45H40C40.5523 45 41 44.5523 41 44H53ZM7 57C-0.179702 57 -6 51.1797 -6 44V7C-6 -0.179702 -0.179702 -6 7 -6V16C6.44772 16 6 16 6 16V44C6 44.5523 6.44772 45 7 45V57ZM40 -6C47.1797 -6 53 -0.179702 53 7V44C53 51.1797 47.1797 57 40 57V45C40.5523 45 41 44.5523 41 44V16C41 16 40.5523 16 40 16V-6Z" fill="#FFCAEE" mask="url(#path-1-inside-1_115_6)"/>
<rect x="7" width="6" height="11" rx="3" fill="#FFCAEE"/>
<rect x="34" width="6" height="11" rx="3" fill="#FFCAEE"/>
</svg>
