<svg width="178" height="167" viewBox="0 0 178 167" fill="none" xmlns="http://www.w3.org/2000/svg">
<mask id="path-1-inside-1_111_4" fill="white">
<path d="M52.9175 3.48641C51.4228 0.399713 47.6956 -0.909545 44.7206 0.796677C29.2285 9.68172 16.7221 23.052 8.89701 39.212C0.167237 57.2402 -2.2257 77.6863 2.10522 97.2431C6.43614 116.8 17.2377 134.324 32.7628 146.981C48.2879 159.638 67.6287 166.688 87.6571 166.99C107.685 167.292 127.23 160.829 143.13 148.646C159.03 136.464 170.355 119.274 175.275 99.8563C180.194 80.4391 178.419 59.9302 170.237 41.6467C162.903 25.258 150.806 11.5164 135.589 2.16793C132.667 0.372716 128.902 1.56891 127.314 4.6091V4.6091C125.727 7.64929 126.922 11.3795 129.823 13.2076C142.571 21.2393 152.709 32.883 158.901 46.7196C165.941 62.4517 167.468 80.0987 163.235 96.8064C159.003 113.514 149.258 128.305 135.577 138.788C121.895 149.271 105.078 154.832 87.8445 154.572C70.611 154.312 53.9691 148.246 40.6104 137.355C27.2518 126.464 17.9575 111.386 14.231 94.5578C10.5044 77.73 12.5634 60.1372 20.075 44.6247C26.6815 30.9812 37.1661 19.6487 50.1504 12.0053C53.1059 10.2656 54.4122 6.5731 52.9175 3.48641V3.48641Z"/>
</mask>
<path d="M52.9175 3.48641C51.4228 0.399713 47.6956 -0.909545 44.7206 0.796677C29.2285 9.68172 16.7221 23.052 8.89701 39.212C0.167237 57.2402 -2.2257 77.6863 2.10522 97.2431C6.43614 116.8 17.2377 134.324 32.7628 146.981C48.2879 159.638 67.6287 166.688 87.6571 166.99C107.685 167.292 127.23 160.829 143.13 148.646C159.03 136.464 170.355 119.274 175.275 99.8563C180.194 80.4391 178.419 59.9302 170.237 41.6467C162.903 25.258 150.806 11.5164 135.589 2.16793C132.667 0.372716 128.902 1.56891 127.314 4.6091V4.6091C125.727 7.64929 126.922 11.3795 129.823 13.2076C142.571 21.2393 152.709 32.883 158.901 46.7196C165.941 62.4517 167.468 80.0987 163.235 96.8064C159.003 113.514 149.258 128.305 135.577 138.788C121.895 149.271 105.078 154.832 87.8445 154.572C70.611 154.312 53.9691 148.246 40.6104 137.355C27.2518 126.464 17.9575 111.386 14.231 94.5578C10.5044 77.73 12.5634 60.1372 20.075 44.6247C26.6815 30.9812 37.1661 19.6487 50.1504 12.0053C53.1059 10.2656 54.4122 6.5731 52.9175 3.48641V3.48641Z" stroke="#333333" stroke-width="108" mask="url(#path-1-inside-1_111_4)"/>
</svg>
