<svg width="60" height="58" viewBox="0 0 60 58" fill="none" xmlns="http://www.w3.org/2000/svg">
<circle cx="30" cy="29" r="15" fill="#FFCAEE"/>
<circle cx="30" cy="29" r="20" stroke="#FFCAEE" stroke-width="4"/>
<path d="M30 1L38.6603 8.5H21.3397L30 1Z" fill="#FFCAEE"/>
<path d="M30.0001 55.9998L21.3399 47.7498H38.6604L30.0001 55.9998Z" fill="#FFCAEE"/>
<path d="M2.00012 28.9998L10.2501 20.3395L10.2501 37.66L2.00012 28.9998Z" fill="#FFCAEE"/>
<path d="M6.74697 14.4248L18.6335 13.0936L7.50013 26.3619L6.74697 14.4248Z" fill="#FFCAEE"/>
<path d="M53.1734 14.4248L52.4202 26.362L41.2868 13.0937L53.1734 14.4248Z" fill="#FFCAEE"/>
<path d="M53.1733 43.4954L41.2867 44.8265L52.4202 31.5583L53.1733 43.4954Z" fill="#FFCAEE"/>
<path d="M6.74693 43.4956L7.50009 31.5584L18.6335 44.8267L6.74693 43.4956Z" fill="#FFCAEE"/>
<path d="M15.2556 52.2684L12.8936 40.5431L27.0817 50.4777L15.2556 52.2684Z" fill="#FFCAEE"/>
<path d="M44.5649 52.2685L32.7389 50.4778L46.927 40.5432L44.5649 52.2685Z" fill="#FFCAEE"/>
<path d="M44.5653 6.25774L46.9274 17.9831L32.7392 8.04843L44.5653 6.25774Z" fill="#FFCAEE"/>
<path d="M15.256 6.25764L27.082 8.04833L12.8939 17.983L15.256 6.25764Z" fill="#FFCAEE"/>
<path d="M58.0001 28.9998L49.7501 37.66V20.3395L58.0001 28.9998Z" fill="#FFCAEE"/>
</svg>
